<?xml version="1.0" encoding="utf-8"?>
<!-- Generator: Adobe Illustrator 19.2.1, SVG Export Plug-In . SVG Version: 6.00 Build 0)  -->
<svg version="1.1" id="Layer_1" xmlns="http://www.w3.org/2000/svg" xmlns:xlink="http://www.w3.org/1999/xlink" x="0px" y="0px"
	 viewBox="0 0 172 40.3" style="enable-background:new 0 0 172 40.3;" xml:space="preserve">
<style type="text/css">
	.st0{fill:none;}
	.st1{enable-background:new    ;}
</style>
<rect x="29.8" y="10.7" class="st0" width="142.2" height="21.2"/>
<g class="st1">
	<path d="M46.4,28.8h-0.2c-0.3,0-0.5-0.1-0.6-0.4L44,24.1h-8.3l-1.6,4.3c-0.1,0.3-0.3,0.4-0.6,0.4h-0.2c-0.2-0.1-0.3-0.2-0.3-0.3
		c-0.1-0.2-0.1-0.3,0-0.5l6.3-16.8c0.1-0.3,0.3-0.4,0.6-0.4s0.5,0.1,0.6,0.4L46.7,28c0.1,0.2,0.1,0.3,0,0.5S46.6,28.7,46.4,28.8z
		 M39.9,13.1l-3.7,9.7h7.3L39.9,13.1z"/>
	<path d="M50.2,23.6v-6.9c0-0.2,0.1-0.3,0.2-0.4c0.1-0.1,0.3-0.2,0.4-0.2s0.3,0.1,0.4,0.2c0.1,0.1,0.2,0.3,0.2,0.4v6.9
		c0,1.1,0.4,2,1.1,2.8s1.7,1.1,2.7,1.2c1.1,0,2-0.4,2.8-1.2s1.2-1.7,1.2-2.8v-6.9c0-0.2,0.1-0.3,0.2-0.4c0.1-0.1,0.3-0.2,0.5-0.2
		s0.3,0.1,0.4,0.2c0.1,0.1,0.2,0.3,0.2,0.4v6.9c0,1.4-0.5,2.7-1.5,3.7s-2.2,1.5-3.7,1.5c-1.4,0-2.6-0.5-3.6-1.5S50.2,25.1,50.2,23.6
		z"/>
	<path d="M67.3,27c-1.3-1.2-1.9-2.7-1.9-4.5s0.6-3.3,1.9-4.5s2.7-1.8,4.4-1.8s3.1,0.5,4.3,1.4c0.1,0.1,0.2,0.2,0.2,0.4
		c0,0.2,0,0.3-0.2,0.5c-0.3,0.3-0.5,0.3-0.9,0.1c-0.9-0.8-2.1-1.1-3.4-1.1S69.2,18,68.1,19c-1,1-1.5,2.2-1.5,3.6s0.5,2.6,1.5,3.6
		s2.2,1.5,3.5,1.5s2.5-0.4,3.5-1.1c0.3-0.2,0.6-0.2,0.9,0.1c0.3,0.3,0.2,0.6-0.1,0.9c-1.2,0.9-2.5,1.3-4,1.3
		C70.1,28.8,68.6,28.2,67.3,27z"/>
	<path d="M84.9,16.1c0.2,0,0.3,0.1,0.4,0.2s0.2,0.3,0.2,0.4s-0.1,0.3-0.2,0.4s-0.3,0.2-0.4,0.2h-1.6v9.2c0,0.3,0.1,0.5,0.3,0.7
		c0.2,0.2,0.4,0.3,0.6,0.3s0.3,0.1,0.5,0.2c0.1,0.1,0.2,0.3,0.2,0.4c0,0.2-0.1,0.3-0.2,0.4s-0.3,0.2-0.4,0.2c-0.6,0-1.2-0.2-1.6-0.6
		s-0.6-0.9-0.6-1.6v-9.2h-1.6c-0.3,0-0.4-0.1-0.5-0.2s-0.1-0.2-0.1-0.4s0-0.3,0-0.4c0.1-0.2,0.2-0.3,0.6-0.3H82v-4.7
		c0-0.2,0.1-0.3,0.2-0.4c0.1-0.1,0.3-0.2,0.4-0.2s0.3,0.1,0.5,0.2c0.1,0.1,0.2,0.3,0.2,0.4V16h1.6V16.1z"/>
	<path d="M91.5,13.2v-0.6c0-0.2,0.1-0.3,0.2-0.4c0.1-0.1,0.3-0.2,0.4-0.2c0.2,0,0.3,0.1,0.5,0.2c0.1,0.1,0.2,0.3,0.2,0.4v0.6
		c0,0.2-0.1,0.3-0.2,0.5c-0.1,0.1-0.3,0.2-0.5,0.2s-0.3-0.1-0.4-0.2C91.5,13.6,91.5,13.4,91.5,13.2z M91.5,28.2V16.8
		c0-0.2,0.1-0.3,0.2-0.4s0.3-0.2,0.5-0.2s0.3,0.1,0.5,0.2c0.1,0.1,0.2,0.3,0.2,0.4v11.4c0,0.2-0.1,0.3-0.2,0.4s-0.3,0.2-0.5,0.2
		s-0.3-0.1-0.4-0.2C91.5,28.5,91.5,28.4,91.5,28.2z"/>
	<path d="M99.9,26.9c-1.2-1.3-1.8-2.7-1.8-4.5c0-1.7,0.6-3.2,1.8-4.5c1.2-1.3,2.6-1.9,4.2-1.9s3.1,0.6,4.2,1.9
		c1.2,1.3,1.8,2.7,1.8,4.5c0,1.7-0.6,3.2-1.8,4.5c-1.2,1.3-2.6,1.9-4.2,1.9S101.1,28.2,99.9,26.9z M104.1,17.4
		c-1.3,0-2.4,0.5-3.3,1.5s-1.4,2.2-1.4,3.6s0.5,2.6,1.4,3.6s2.1,1.5,3.3,1.5s2.4-0.5,3.3-1.5s1.4-2.2,1.4-3.6s-0.5-2.6-1.4-3.6
		S105.4,17.4,104.1,17.4z"/>
	<path d="M116.1,28.3c-0.1,0.3-0.3,0.5-0.6,0.5h-0.2c-0.2-0.1-0.3-0.2-0.4-0.3c0,0,0,0,0-0.1v-0.1V16.8c0-0.2,0.1-0.3,0.2-0.4
		s0.3-0.2,0.4-0.2c0.2,0,0.3,0.1,0.4,0.2s0.2,0.3,0.2,0.4V18c1-1.2,2.3-1.8,3.8-1.8s2.8,0.5,3.8,1.5s1.5,2.2,1.5,3.6v6.9
		c0,0.2-0.1,0.3-0.2,0.4s-0.3,0.2-0.4,0.2c-0.2,0-0.3-0.1-0.4-0.2s-0.2-0.3-0.2-0.4v-6.9c0-1.1-0.4-2-1.1-2.8
		c-0.8-0.8-1.7-1.2-2.8-1.2c-1.1,0-2,0.4-2.8,1.1s-1.2,1.7-1.2,2.8C116.1,21.2,116.1,28.3,116.1,28.3z"/>
	<path d="M140.3,16.3c0.1-0.1,0.3-0.2,0.4-0.2c0.2,0,0.3,0.1,0.4,0.2c0.1,0.1,0.2,0.3,0.2,0.4v11.4c0,0.2-0.1,0.3-0.2,0.4
		c-0.1,0.1-0.3,0.2-0.4,0.2c-0.2,0-0.3-0.1-0.4-0.2c-0.1-0.1-0.2-0.3-0.2-0.4v-1.9c-0.6,0.8-1.2,1.4-2.1,1.8
		c-0.8,0.4-1.7,0.7-2.7,0.7c-1.7,0-3.1-0.6-4.2-1.9c-1.2-1.2-1.8-2.7-1.8-4.5s0.6-3.2,1.8-4.5c1.2-1.2,2.6-1.9,4.2-1.9
		c0.9,0,1.8,0.2,2.7,0.7c0.8,0.4,1.5,1.1,2.1,1.8v-1.9C140.1,16.6,140.2,16.4,140.3,16.3z M130.6,22.5c0,1.4,0.5,2.6,1.4,3.6
		s2.1,1.5,3.4,1.5s2.4-0.5,3.3-1.5c0.9-1,1.4-2.2,1.4-3.6s-0.5-2.6-1.4-3.6s-2-1.5-3.3-1.5s-2.4,0.5-3.4,1.5S130.6,21.1,130.6,22.5z
		"/>
	<path d="M150.5,16.1c0.2,0,0.3,0.1,0.4,0.2c0.1,0.1,0.2,0.3,0.2,0.4s-0.1,0.3-0.2,0.4c-0.1,0.1-0.3,0.2-0.4,0.2h-1.6v9.2
		c0,0.3,0.1,0.5,0.3,0.7s0.4,0.3,0.6,0.3c0.2,0,0.3,0.1,0.5,0.2c0.1,0.1,0.2,0.3,0.2,0.4c0,0.2-0.1,0.3-0.2,0.4
		c-0.1,0.1-0.3,0.2-0.4,0.2c-0.6,0-1.2-0.2-1.6-0.6c-0.4-0.4-0.6-0.9-0.6-1.6v-9.2H146c-0.3,0-0.4-0.1-0.5-0.2s-0.1-0.2-0.1-0.4
		s0-0.3,0-0.4c0.1-0.2,0.3-0.3,0.6-0.3h1.6v-4.7c0-0.2,0.1-0.3,0.2-0.4c0.1-0.1,0.3-0.2,0.4-0.2s0.3,0.1,0.5,0.2
		c0.1,0.1,0.2,0.3,0.2,0.4V16h1.6V16.1z"/>
	<path d="M168.4,22v0.1c0,0.2-0.1,0.3-0.2,0.4c-0.1,0.1-0.3,0.2-0.4,0.2h-10.4c0.1,1.4,0.6,2.5,1.5,3.5c0.9,0.9,2.1,1.4,3.4,1.4
		c0.8,0,1.6-0.2,2.4-0.6c0.7-0.4,1.3-1,1.7-1.7c0.2-0.3,0.5-0.4,0.8-0.2c0.3,0.2,0.4,0.5,0.2,0.9c-0.6,0.9-1.3,1.6-2.2,2.1
		s-1.9,0.8-2.9,0.8c-1.7,0-3.2-0.6-4.4-1.8c-1.2-1.2-1.8-2.7-1.8-4.5s0.6-3.2,1.8-4.5s2.6-1.9,4.3-1.9s3.1,0.6,4.2,1.7
		S168.3,20.4,168.4,22z M165.4,18.5c-0.9-0.8-1.9-1.2-3.1-1.2c-1.2,0-2.2,0.4-3.1,1.2c-0.9,0.8-1.5,1.8-1.7,3h9.6
		C166.9,20.3,166.3,19.3,165.4,18.5z"/>
</g>
<g>
	<g>
		<path d="M14.3,24.8c-1.3,0-2.5,0-3.7,0c0.3-0.7,0.7-1.4,1-2.1c0.5-1,0.9-1.9,1.4-2.9c0.3-0.6,0.6-1.2,0.9-1.8
			c0.3-0.6,0.6-1.1,0.8-1.7c0.1-0.1,0.1-0.2,0.3-0.2c1.9,0,3.8,0,5.8,0c0.2,0,0.2,0,0.1,0.2c-0.3,0.6-0.6,1.2-0.9,1.7
			s-0.5,1-0.8,1.5c-0.3,0.6-0.7,1.3-1,1.9c1,0,2.1,0,3.1,0c-0.1,0.2-0.3,0.4-0.5,0.6c-0.4,0.4-0.8,0.9-1.2,1.3
			c-0.5,0.5-0.9,1-1.4,1.5c-0.6,0.6-1.1,1.2-1.7,1.8c-0.7,0.8-1.5,1.6-2.3,2.4c-0.5,0.5-1,1.1-1.5,1.6c-0.7,0.7-1.3,1.4-2,2.1
			c-0.6,0.6-1.2,1.3-1.8,1.9c-0.1,0.1-0.2,0.2-0.3,0.3c0,0-0.1,0.1-0.1,0c-0.1,0,0-0.1,0-0.1c0.2-0.4,0.4-0.7,0.6-1.1
			c0.4-0.8,0.9-1.5,1.3-2.3c0.3-0.4,0.5-0.9,0.8-1.3c0.4-0.7,0.8-1.5,1.3-2.2c0.3-0.6,0.6-1.1,0.9-1.7C13.8,25.8,14,25.3,14.3,24.8z
			"/>
	</g>
	<path d="M22,15.6h-8c-0.6,0-1-0.4-1-1v-5c0-0.6,0.4-1,1-1h8c0.6,0,1,0.4,1,1v5C23,15.2,22.6,15.6,22,15.6z"/>
	<path d="M28.5,9.1v6c0,0.6-0.4,1-1,1h-3c-0.6,0-1-0.4-1-1v-6c0-0.6,0.4-1,1-1h3C28.1,8.1,28.5,8.6,28.5,9.1z"/>
	<path d="M12.5,9.1v6c0,0.6-0.4,1-1,1h-3c-0.6,0-1-0.4-1-1v-6c0-0.6,0.4-1,1-1h3C12.1,8.1,12.5,8.6,12.5,9.1z"/>
</g>
</svg>
