<?xml version="1.0" encoding="utf-8"?>
<!-- Generator: Adobe Illustrator 19.2.1, SVG Export Plug-In . SVG Version: 6.00 Build 0)  -->
<svg version="1.1" id="Layer_1" xmlns="http://www.w3.org/2000/svg" xmlns:xlink="http://www.w3.org/1999/xlink" x="0px" y="0px"
	 viewBox="0 0 204.5 68.1" style="enable-background:new 0 0 204.5 68.1;" xml:space="preserve">
<style type="text/css">
	.st0{fill:#25408F;}
	.st1{fill:#FFFF00;}
	.st2{fill:none;}
	.st3{fill:#FFFFFF;}
	.st4{font-family:'Quicksand-Regular';}
	.st5{font-size:25.8625px;}
</style>
<g>
	<circle class="st0" cx="33.5" cy="34.9" r="28.8"/>
	<g>
		<g>
			<path class="st1" d="M40.2,30.1c-0.6,0.6-1.3,1.2-1.9,1.8c-1.8,1.7-3.6,3.3-5.3,5c-0.1,0-0.1,0.1-0.1,0.2c0,0.1,0.1,0.1,0.2,0.1
				c2,0.4,3.9,0.9,5.9,1.3c0.9,0.2,1.7,0.4,2.7,0.6c-0.5,0.4-0.9,0.7-1.3,1c-1.8,1.4-3.5,2.7-5.3,4.1c-1.5,1.2-3,2.3-4.4,3.4
				c-1.7,1.3-3.4,2.7-5.1,4c-1.5,1.2-3,2.3-4.4,3.4c-1.2,1-2.4,1.9-3.7,2.9c0,0-0.1,0.1-0.1,0.1c-0.1,0-0.1,0.1-0.2,0
				c0,0,0-0.1,0.1-0.1c1.3-1.5,2.6-3.1,4-4.7c1.2-1.4,2.4-2.8,3.5-4.2c1.8-2.2,3.7-4.3,5.5-6.5c0.1-0.2,0.3-0.4,0.4-0.5
				c0.1-0.1,0.1-0.2-0.1-0.2c-0.6-0.1-1.1-0.2-1.7-0.4c-1.9-0.4-3.8-0.8-5.8-1.2c-0.4-0.1-0.7-0.2-1.1-0.2c0.5-0.6,0.9-1.1,1.4-1.6
				c2.1-2.4,4.2-4.9,6.3-7.3c1.2-1.4,2.4-2.9,3.6-4.3c0.1-0.1,0.2-0.2,0.2-0.3C35.6,27.7,37.9,28.9,40.2,30.1z"/>
		</g>
		
			<rect x="31.4" y="18.6" transform="matrix(0.8282 0.5604 -0.5604 0.8282 20.2556 -17.9113)" class="st1" width="15.8" height="11"/>
		<path class="st1" d="M45.1,36.9L45.1,36.9c-1.6-1.1-2-3.3-0.9-4.9l4.3-6.4c1.1-1.6,3.3-2,4.9-0.9l0,0c1.6,1.1,2,3.3,0.9,4.9
			L50,35.9C48.9,37.5,46.7,37.9,45.1,36.9z"/>
		<path class="st1" d="M25.3,23.5L25.3,23.5c-1.6-1.1-2-3.3-0.9-4.9l4.3-6.4c1.1-1.6,3.3-2,4.9-0.9l0,0c1.6,1.1,2,3.3,0.9,4.9
			l-4.3,6.4C29.1,24.2,26.9,24.6,25.3,23.5z"/>
	</g>
</g>
<rect x="62.3" y="26.5" class="st2" width="142.2" height="21.2"/>
<text transform="matrix(1 0 0 1 63.8697 44.6523)" class="st3 st4 st5">Auctionate</text>
</svg>
